<svg width="20" height="26" fill="none" xmlns="http://www.w3.org/2000/svg"><path d="M17.059 9.216h-1.767V5.185C15.292 2.325 12.917 0 9.998 0 7.08 0 4.704 2.326 4.704 5.185v4.03H2.941A2.945 2.945 0 000 12.158v10a2.944 2.944 0 002.941 2.941H17.06A2.944 2.944 0 0020 22.157v-10a2.945 2.945 0 00-2.941-2.941zM6.665 5.185c0-1.778 1.495-3.224 3.333-3.224s3.334 1.446 3.334 3.224v4.03H6.665v-4.03zm11.374 16.972c0 .54-.44.98-.98.98H2.94c-.54 0-.98-.44-.98-.98v-10c0-.54.44-.98.98-.98h14.12c.54 0 .98.44.98.98v10z" fill="#E0E0E0"/></svg>