<svg width="34" height="34" fill="none" xmlns="http://www.w3.org/2000/svg"><path d="M22.344.852c-.468 0-.869.4-.869.868v2.371c0 .468.401.869.869.869a.885.885 0 00.868-.869V1.72c0-.468-.4-.868-.868-.868zm8.216 3.406a.847.847 0 00-1.202 0l-1.67 1.67a.847.847 0 000 1.203.847.847 0 001.202 0l1.67-1.67a.847.847 0 000-1.203zm-13.594 1.67l-1.67-1.67a.847.847 0 00-1.202 0 .847.847 0 000 1.203l1.67 1.67a.847.847 0 001.203 0 .847.847 0 000-1.203zm6.012 21.008a3.61 3.61 0 00-2.571-1.069h-9.452a.862.862 0 00-.869.869c0 .467.368.868.869.868h9.452c.534 0 1.002.2 1.336.568.334.334.567.835.567 1.336 0 .534-.2 1.002-.567 1.336a1.954 1.954 0 01-1.336.568c-.535 0-1.002-.2-1.336-.568a1.954 1.954 0 01-.568-1.336c0-.468-.4-.868-.868-.868-.468 0-.869.4-.869.868a3.61 3.61 0 001.069 2.572 3.61 3.61 0 002.572 1.068 3.61 3.61 0 002.571-1.068 3.61 3.61 0 001.07-2.572 3.61 3.61 0 00-1.07-2.572z" fill="#454545"/><path d="M30.526 19.488l-1.636-1.636a.847.847 0 00-1.202 0 .798.798 0 00-.234.434c-.034-.768-.234-1.47-.501-2.138a6.2 6.2 0 00.835-1.436c.3-.701.434-1.47.434-2.238a5.745 5.745 0 00-1.737-4.141c-1.069-1.035-2.538-1.703-4.141-1.703a5.93 5.93 0 00-3.04.835c-.634.4-1.202.901-1.67 1.503a8.295 8.295 0 00-4.642-1.437 8.162 8.162 0 00-5.344 1.97 8.347 8.347 0 00-2.638 4.31 5.77 5.77 0 00-3.34 1.636A5.706 5.706 0 000 19.488 5.706 5.706 0 005.711 25.2h15.197c1.803 0 3.406-.734 4.609-1.903a6.512 6.512 0 001.903-4.61v-.033c.034.134.1.267.234.368l1.67 1.67a.847.847 0 001.202 0 .847.847 0 000-1.203zm-6.178 2.605a4.774 4.774 0 01-3.373 1.403H5.744a3.988 3.988 0 01-4.008-4.008 3.988 3.988 0 014.008-4.008.79.79 0 00.4-.1.82.82 0 00.368-.568 6.45 6.45 0 012.17-3.94 6.568 6.568 0 014.242-1.57 6.52 6.52 0 013.708 1.168c.801.568 1.503 1.303 1.97 2.205-.134.067-.267.1-.4.167-.836.367-1.57.935-2.205 1.603-.3.367-.267.902.067 1.202.367.3.902.268 1.202-.066a5.612 5.612 0 011.603-1.203 4.856 4.856 0 011.97-.434c1.337 0 2.506.534 3.374 1.403a4.774 4.774 0 011.403 3.373c.1 1.336-.434 2.505-1.27 3.373zm1.837-8.015c-.067.167-.134.334-.234.467a5.137 5.137 0 00-.4-.434 6.512 6.512 0 00-4.61-1.904c-.167 0-.367 0-.534.034a7.383 7.383 0 00-1.47-2.138c.334-.467.768-.835 1.236-1.135a3.975 3.975 0 012.137-.602c1.136 0 2.205.468 2.94 1.203a4.113 4.113 0 011.202 2.939 3.462 3.462 0 01-.267 1.57zm6.947-2.438H30.76c-.467 0-.868.4-.868.868 0 .467.4.868.868.868h2.372c.467 0 .868-.4.868-.868-.033-.468-.4-.868-.868-.868z" fill="#454545"/></svg>